<mxfile host="65bd71144e">
    <diagram id="GG6rVnscwr9jea7uJUoG" name="第 1 页">
        <mxGraphModel dx="2104" dy="959" grid="1" gridSize="10" guides="1" tooltips="1" connect="1" arrows="1" fold="1" page="0" pageScale="1" pageWidth="827" pageHeight="1169" math="0" shadow="0">
            <root>
                <mxCell id="0"/>
                <mxCell id="1" parent="0"/>
                <mxCell id="2" value="&lt;font style=&quot;font-size: 21px&quot;&gt;Username&lt;br&gt;Password&lt;br&gt;Authentication Filter&lt;/font&gt;" style="rounded=0;whiteSpace=wrap;html=1;fillColor=#008a00;fontColor=#FFFFFF;strokeColor=#005700;" vertex="1" parent="1">
                    <mxGeometry x="-90" y="60" width="160" height="200" as="geometry"/>
                </mxCell>
                <mxCell id="3" value="&lt;span style=&quot;font-size: 21px&quot;&gt;Basic Authentication Filter&lt;/span&gt;" style="rounded=0;whiteSpace=wrap;html=1;fillColor=#008a00;fontColor=#FFFFFF;strokeColor=#005700;" vertex="1" parent="1">
                    <mxGeometry x="90" y="60" width="160" height="200" as="geometry"/>
                </mxCell>
                <mxCell id="4" value="…" style="rounded=0;whiteSpace=wrap;html=1;fillColor=#008a00;fontColor=#FFFFFF;strokeColor=#005700;fontSize=20;" vertex="1" parent="1">
                    <mxGeometry x="280" y="60" width="70" height="200" as="geometry"/>
                </mxCell>
                <mxCell id="5" value="&lt;span style=&quot;font-size: 21px&quot;&gt;Exception Translation Filter&lt;/span&gt;" style="rounded=0;whiteSpace=wrap;html=1;fillColor=#1ba1e2;fontColor=#FFFFFF;strokeColor=#006EAF;" vertex="1" parent="1">
                    <mxGeometry x="380" y="60" width="150" height="200" as="geometry"/>
                </mxCell>
                <mxCell id="6" value="FilterSecurity Interceptor" style="rounded=0;whiteSpace=wrap;html=1;fillColor=#f0a30a;fontColor=#FFFFFF;strokeColor=#BD7000;fontSize=20;" vertex="1" parent="1">
                    <mxGeometry x="550" y="60" width="150" height="200" as="geometry"/>
                </mxCell>
                <mxCell id="7" value="REST API" style="rounded=0;whiteSpace=wrap;html=1;fillColor=#f0a30a;fontColor=#FFFFFF;strokeColor=#BD7000;fontSize=20;" vertex="1" parent="1">
                    <mxGeometry x="720" y="25" width="190" height="270" as="geometry"/>
                </mxCell>
                <mxCell id="9" value="" style="edgeStyle=none;orthogonalLoop=1;jettySize=auto;html=1;shape=flexArrow;rounded=1;startSize=8;endSize=8;fontSize=20;fontColor=#FFFFFF;labelBorderColor=none;strokeColor=#CC6600;fillColor=#CC6600;entryX=0;entryY=0.25;entryDx=0;entryDy=0;" edge="1" parent="1" target="7">
                    <mxGeometry width="140" relative="1" as="geometry">
                        <mxPoint x="-190" y="100" as="sourcePoint"/>
                        <mxPoint x="530" y="100" as="targetPoint"/>
                        <Array as="points"/>
                    </mxGeometry>
                </mxCell>
                <mxCell id="11" value="" style="edgeStyle=none;orthogonalLoop=1;jettySize=auto;html=1;shape=flexArrow;rounded=1;startSize=8;endSize=8;fontSize=20;fontColor=#FFFFFF;labelBorderColor=none;strokeColor=#CC6600;fillColor=#CC6600;exitX=0;exitY=0.75;exitDx=0;exitDy=0;" edge="1" parent="1" source="7">
                    <mxGeometry width="140" relative="1" as="geometry">
                        <mxPoint x="720" y="210" as="sourcePoint"/>
                        <mxPoint x="-190" y="230" as="targetPoint"/>
                        <Array as="points"/>
                    </mxGeometry>
                </mxCell>
                <mxCell id="12" value="请求" style="text;html=1;align=center;verticalAlign=middle;resizable=0;points=[];autosize=1;strokeColor=none;fillColor=none;fontSize=20;fontColor=#000000;" vertex="1" parent="1">
                    <mxGeometry x="-170" y="60" width="60" height="30" as="geometry"/>
                </mxCell>
                <mxCell id="13" value="响应" style="text;html=1;align=center;verticalAlign=middle;resizable=0;points=[];autosize=1;strokeColor=none;fillColor=none;fontSize=20;fontColor=#000000;" vertex="1" parent="1">
                    <mxGeometry x="-170" y="190" width="60" height="30" as="geometry"/>
                </mxCell>
            </root>
        </mxGraphModel>
    </diagram>
</mxfile>